<?xml version="1.0" encoding="UTF-8" standalone="no"?>
<!-- Created with Inkscape (http://www.inkscape.org/) -->

<svg
   xmlns:dc="http://purl.org/dc/elements/1.1/"
   xmlns:cc="http://creativecommons.org/ns#"
   xmlns:rdf="http://www.w3.org/1999/02/22-rdf-syntax-ns#"
   xmlns:svg="http://www.w3.org/2000/svg"
   xmlns="http://www.w3.org/2000/svg"
   xmlns:sodipodi="http://sodipodi.sourceforge.net/DTD/sodipodi-0.dtd"
   xmlns:inkscape="http://www.inkscape.org/namespaces/inkscape"
   width="121.52082mm"
   height="121.45406mm"
   viewBox="0 0 121.52082 121.45406"
   version="1.1"
   id="svg846"
   inkscape:version="0.92.4 (5da689c313, 2019-01-14)"
   sodipodi:docname="usericon.svg">
  <defs
     id="defs840" />
  <sodipodi:namedview
     id="base"
     pagecolor="#ffffff"
     bordercolor="#666666"
     borderopacity="1.0"
     inkscape:pageopacity="0.0"
     inkscape:pageshadow="2"
     inkscape:zoom="0.7"
     inkscape:cx="54.924679"
     inkscape:cy="315.38252"
     inkscape:document-units="mm"
     inkscape:current-layer="layer1"
     showgrid="false"
     inkscape:window-width="1920"
     inkscape:window-height="1017"
     inkscape:window-x="-8"
     inkscape:window-y="-8"
     inkscape:window-maximized="1" />
  <metadata
     id="metadata843">
    <rdf:RDF>
      <cc:Work
         rdf:about="">
        <dc:format>image/svg+xml</dc:format>
        <dc:type
           rdf:resource="http://purl.org/dc/dcmitype/StillImage" />
        <dc:title></dc:title>
      </cc:Work>
    </rdf:RDF>
  </metadata>
  <g
     inkscape:label="Layer 1"
     inkscape:groupmode="layer"
     id="layer1"
     transform="translate(-48.418295,-94.803213)">
    <g
       id="g1444">
      <path
         id="path1397"
         d="m 53.692506,158.89756 a 55.588375,55.554966 0 0 1 52.066434,-58.81709 55.588375,55.554966 0 0 1 58.89969,51.98174 55.588375,55.554966 0 0 1 -51.95952,58.91145 55.588375,55.554966 0 0 1 -58.994007,-51.87481 l 55.473567,-3.56864 z"
         style="opacity:1;fill:none;fill-opacity:1;fill-rule:evenodd;stroke:#000000;stroke-width:10.34135342;stroke-linecap:round;stroke-linejoin:round;stroke-miterlimit:4;stroke-dasharray:none;stroke-dashoffset:0;stroke-opacity:1"
         inkscape:connector-curvature="0" />
      <path
         id="path1397-8"
         d="m 130.84462,-50.408777 a 51.579086,51.548084 0 0 1 48.31117,-54.574933 51.579086,51.548084 0 0 1 54.65157,48.232577 51.579086,51.548084 0 0 1 -48.21196,54.6624799 51.579086,51.548084 0 0 1 -54.73909,-48.1333549 l 51.47256,-3.311252 z"
         style="opacity:1;fill:#fffefe;fill-opacity:1;fill-rule:evenodd;stroke:none;stroke-width:9.59548759;stroke-linecap:round;stroke-linejoin:round;stroke-miterlimit:4;stroke-dasharray:none;stroke-dashoffset:0;stroke-opacity:1"
         transform="rotate(71.294693)"
         inkscape:connector-curvature="0" />
      <path
         id="path1391"
         d="m 86.249396,145.54333 a 22.636791,22.636791 0 0 1 21.202584,-23.966 22.636791,22.636791 0 0 1 23.98523,21.18082 22.636791,22.636791 0 0 1 -21.15905,24.00445 22.636791,22.636791 0 0 1 -24.023634,-21.13725 l 22.590044,-1.4541 z"
         style="opacity:1;fill:#000000;fill-opacity:1;fill-rule:evenodd;stroke:#000000;stroke-width:3.02487469;stroke-linecap:round;stroke-linejoin:round;stroke-miterlimit:4;stroke-dasharray:none;stroke-dashoffset:0;stroke-opacity:1"
         inkscape:connector-curvature="0" />
      <path
         sodipodi:nodetypes="ccccc"
         inkscape:connector-curvature="0"
         id="path1393"
         d="m 71.913091,191.17548 c 3.24548,-14.4438 12.75497,-22.674 21.93669,-23.48629 12.241609,6.32794 19.323959,6.04338 30.138649,0.10022 11.243,0.33682 20.03246,8.76057 22.21145,23.38607 z"
         style="fill:#000000;fill-opacity:1;stroke:#000000;stroke-width:0.23717132;stroke-linecap:butt;stroke-linejoin:round;stroke-miterlimit:4;stroke-dasharray:none;stroke-opacity:1" />
      <path
         inkscape:connector-curvature="0"
         id="path1434"
         d="m 105.21087,207.2607 c -7.400938,-0.62484 -14.044647,-2.48934 -20.429741,-5.73345 -4.851603,-2.46498 -9.207574,-5.56573 -12.955126,-9.22199 l -1.390208,-1.35633 38.781865,0.001 38.78186,0.001 -1.18719,1.14032 c -3.19633,3.07012 -6.3996,5.52504 -10.09012,7.73286 -1.66764,0.99765 -5.15396,2.7491 -6.92641,3.47968 -4.66814,1.92414 -9.85777,3.24055 -15.03787,3.81452 -1.72532,0.19116 -7.88155,0.28295 -9.54706,0.14234 z"
         style="opacity:1;fill:#000000;fill-opacity:1;fill-rule:evenodd;stroke:none;stroke-width:3.73921251;stroke-linecap:round;stroke-linejoin:round;stroke-miterlimit:4;stroke-dasharray:none;stroke-dashoffset:0;stroke-opacity:1" />
    </g>
  </g>
</svg>
