<?xml version="1.0" encoding="UTF-8" standalone="no"?>
<!-- Created with Inkscape (http://www.inkscape.org/) -->

<svg
   xmlns:dc="http://purl.org/dc/elements/1.1/"
   xmlns:cc="http://creativecommons.org/ns#"
   xmlns:rdf="http://www.w3.org/1999/02/22-rdf-syntax-ns#"
   xmlns:svg="http://www.w3.org/2000/svg"
   xmlns="http://www.w3.org/2000/svg"
   xmlns:sodipodi="http://sodipodi.sourceforge.net/DTD/sodipodi-0.dtd"
   xmlns:inkscape="http://www.inkscape.org/namespaces/inkscape"
   width="381mm"
   height="76.810654mm"
   viewBox="0 0 1440 320"
   version="1.1"
   id="svg1404"
   inkscape:version="0.92.4 (5da689c313, 2019-01-14)"
   sodipodi:docname="wave-blob.svg">
  <defs
     id="defs1398" />
  <sodipodi:namedview
     id="base"
     pagecolor="#ffffff"
     bordercolor="#666666"
     borderopacity="1.0"
     inkscape:pageopacity="0.0"
     inkscape:pageshadow="2"
     inkscape:zoom="0.49497475"
     inkscape:cx="748.07176"
     inkscape:cy="316.05691"
     inkscape:document-units="mm"
     inkscape:current-layer="layer1"
     showgrid="false"
     inkscape:window-width="1920"
     inkscape:window-height="1017"
     inkscape:window-x="-8"
     inkscape:window-y="-8"
     inkscape:window-maximized="1" />
  <metadata
     id="metadata1401">
    <rdf:RDF>
      <cc:Work
         rdf:about="">
        <dc:format>image/svg+xml</dc:format>
        <dc:type
           rdf:resource="http://purl.org/dc/dcmitype/StillImage" />
        <dc:title></dc:title>
      </cc:Work>
    </rdf:RDF>
  </metadata>
  <g
     inkscape:label="Layer 1"
     inkscape:groupmode="layer"
     id="layer1"
     style="opacity:0.97000002"
     transform="translate(144.38691,-146.56089)">
    <path
       id="path1949"
       d="m -144.38691,197.97155 15.875,1.40229 c 15.875,1.50812 47.625005,4.15396 79.375005,2.83104 31.75,-1.32292 63.5,-7.14375 95.25,-15.53104 31.75,-8.54604 63.499995,-19.65854 95.249995,-23.97125 31.75,-4.15396 63.5,-1.50813 79.375,0 l 15.875,1.40229 v 59.26667 h -15.875 c -15.875,0 -47.625,0 -79.375,0 -31.75,0 -63.499995,0 -95.249995,0 -31.75,0 -63.5,0 -95.25,0 -31.75,0 -63.500005,0 -79.375005,0 h -15.875 z"
       inkscape:connector-curvature="0"
       style="fill:#273036;fill-opacity:1;stroke-width:0.26458332" />
    <path
       id="path1960"
       d="m -63.586485,155.5335 c 1.164167,4.68313 -2.592916,9.8425 -6.82625,12.46188 -4.233333,2.61937 -8.916458,2.67229 -13.520208,-0.0529 -4.60375,-2.69875 -9.128129,-8.20209 -7.9375,-12.88521 1.190625,-4.70958 8.069792,-8.62541 14.552083,-8.49312 6.482292,0.13229 12.567709,4.31271 13.731875,8.96937 z"
       inkscape:connector-curvature="0"
       style="fill:#273036;stroke-width:0.26458332" />
  </g>
</svg>
